PathFileType	4	(X/Y/Z)	pose_F01_0-84.trc
DataRate	CameraRate	NumFrames	NumMarkers	Units	OrigDataRate	OrigDataStartFrame	OrigNumFrames
30	30	6	21	m	30	0	84
Frame#	Time	CHip			RHip			RKnee			RAnkle			RBigToe			RSmallToe			RHeel			LHip			LKnee			LAnkle			LBigToe			LSmallToe			LHeel			Neck			Nose			RShoulder			RElbow			RWrist			LShoulder			LElbow			LWrist			
		X1	Y1	Z1	X2	Y2	Z2	X3	Y3	Z3	X4	Y4	Z4	X5	Y5	Z5	X6	Y6	Z6	X7	Y7	Z7	X8	Y8	Z8	X9	Y9	Z9	X10	Y10	Z10	X11	Y11	Z11	X12	Y12	Z12	X13	Y13	Z13	X14	Y14	Z14	X15	Y15	Z15	X16	Y16	Z16	X17	Y17	Z17	X18	Y18	Z18	X19	Y19	Z19	X20	Y20	Z20	X21	Y21	Z21	
0	0.0	-0.2578477510061793	1.8760421390997042	-0.5349165998675159	-0.27508567730234906	1.8728073368318934	-0.4680544617258839	-0.25409779997551213	1.738776794948229	-0.47612150631324984													-0.24018230989807357	1.8785939096637065	-0.6053432998141751	-0.23562414240767932	1.7296170809745897	-0.5916526767847183	-0.22764301687070723	1.5804375689423167	-0.5906394172863603	-0.22741697160367666	1.536127005103607	-0.6670900329803615	-0.2187458572738268	1.5493355474560597	-0.66905893291814	-0.22355618929943155	1.5655007704331152	-0.5631550574487606	-0.25609120731327795	2.0542622931430885	-0.5426345077996403	-0.2682097763683672	2.1335676792111413	-0.6005718892822676	-0.2813468605233179	2.0536033914587897	-0.447365979362768	-0.28373437097535154	1.9569706707094858	-0.3983990442737951	-0.29579300991455587	1.872712454646937	-0.3687461904839011	-0.23165558548962667	2.055131050058648	-0.6332660853528749	-1.4264921404856452	1.873724368426981	0.6301221270070331	-0.20747186471068887	1.8928720811834159	-0.6758014478462946
1	0.03333333333333333	-0.2579075831590513	1.877961268605128	-0.5351710670757986	-0.2750250714161044	1.8736175108418502	-0.46813919283594707	-0.25409779997551213	1.738776794948229	-0.47612150631324984													-0.2402480129889656	1.8805932507555676	-0.6055706412406459	-0.2359864563051607	1.7294824311745702	-0.5912267987901135	-0.22793342335433553	1.5792155084759267	-0.5900634334148555	-0.22832729821772918	1.5373267705858737	-0.6623369206188744	-0.21865036235344995	1.5517419330901712	-0.6691817801132435	-0.22553040017085585	1.565082146387308	-0.5610012982262255	-0.2560820445668688	2.054270922758524	-0.5425731788221777	-0.2682113450540212	2.133592486390046	-0.6005296778044349	-0.28132560329633244	2.0536057021161755	-0.4473042379642335	-0.2817832665689998	1.9572258057781582	-0.4006764002962942	-0.2951532451991467	1.8703905746589102	-0.3738209916131789	-0.23166388387658052	2.056420719941748	-0.6336266985713936	-1.4180643825048467	1.8727121552216377	0.6160257767517	-0.20960224760343327	1.892269148237904	-0.6732912962450431
2	0.06666666666666667	-0.25796741531192335	1.8798803981105516	-0.5354255342840814	-0.2749644655298597	1.874427684851807	-0.46822392394601026	-0.25409779997551213	1.738776794948229	-0.47612150631324984													-0.2403137160798576	1.8825925918474287	-0.6057979826671166	-0.2363487702026421	1.7293477813745508	-0.5908009207955087	-0.22822382983796383	1.5779934480095368	-0.5894874495433506	-0.2292376248317817	1.5385265360681406	-0.6575838082573873	-0.2185548674330731	1.5541483187242826	-0.6693046273083469	-0.22750461104228015	1.5646635223415006	-0.5588475390036903	-0.2560728818204596	2.0542795523739596	-0.5425118498447151	-0.26821291373967526	2.133617293568951	-0.6004874663266022	-0.28130434606934696	2.0536080127735614	-0.44724249656569903	-0.2798321621626481	1.9574809408468306	-0.4029537563187933	-0.29451348048373754	1.8680686946708835	-0.37889579274245666	-0.23167218226353437	2.057710389824848	-0.6339873117899124	-1.4096366245240481	1.8716999420162943	0.6019294264963669	-0.21173263049617766	1.891666215292392	-0.6707811446437917
3	0.1	-0.2589965771981231	1.8771695911491577	-0.5383280035837145	-0.27511727271511444	1.8730886872194983	-0.46806966893230617	-0.25409779997551213	1.738776794948229	-0.47612150631324984													-0.23823882163788754	1.881441338215916	-0.6078837943129906	-0.23609630826563113	1.7302502128973056	-0.5911826032630086	-0.2278865793631206	1.5789888468619406	-0.5899934751345843	-0.22942913656118435	1.5399115643254158	-0.6571761395758392	-0.21844199607452866	1.5538350549258515	-0.6691927575142488	-0.2272762488630518	1.5635459296048864	-0.5588065536683362	-0.2560771900646609	2.0543036323651713	-0.5425730412205054	-0.2673784553117424	2.1323188633209806	-0.597843981106394	-0.2812982754897144	2.0536638368293354	-0.4473133442208884	-0.2779084024145928	1.9564530135495901	-0.4046386272941347	-0.2917790040905647	1.8701779394105484	-0.38089812045437094	-0.23249374095865336	2.056613421493403	-0.6364480667700813	-1.4016460065102085	1.868396379985141	0.5896902570643832	-0.21377496026274354	1.8953765004919914	-0.6682528489027048
4	0.13333333333333333	-0.258996116625146	1.8769733827350465	-0.5383464113554195	-0.27512100992887667	1.8729453765298205	-0.46815449629006395	-0.25409779997551213	1.738776794948229	-0.47612150631324984													-0.23821232035915535	1.8812262083369664	-0.6078379226684126	-0.23615926349620875	1.7307453295879398	-0.591127413947026	-0.2283071150993353	1.578412007260245	-0.5894780639810582	-0.22948672729647954	1.537334272819488	-0.6569580868318363	-0.2187714758243113	1.5525877548067726	-0.6687306173229833	-0.22810177367047188	1.56500369956938	-0.5583091452189618	-0.25603426074479796	2.054333277001593	-0.5425409054555236	-0.2682771478242993	2.1313162037860605	-0.600207692699567	-0.27944975762277047	2.0536623573923665	-0.44927069613725307	-0.28080912534193403	1.9577684888501807	-0.4060387153104731	-0.296415972475239	1.8754552309128443	-0.3949028983839489	-0.2316254896265295	2.0566452378915927	-0.633599433705883	-1.4094930334045197	1.869650887098195	0.6029219115780221	-0.2136176227027851	1.8957109734398019	-0.6683333397617293
5	0.16666666666666666	-0.2600413693958868	1.8774759596210207	-0.5413764194317583	-0.27725848633942246	1.8720556028115412	-0.46579604550208803	-0.25409779997551213	1.738776794948229	-0.47612150631324984													-0.24043025758163852	1.8803511417658507	-0.605577665661673	-0.23592127263053708	1.732216634750998	-0.5916716910083055	-0.2276082946229295	1.5799924494219104	-0.5860610682286841	-0.22925007001614892	1.5384242065042883	-0.6575520767123485	-0.22065676577781318	1.553888362126274	-0.6671433294773939	-0.22580831838267426	1.566686393228532	-0.5608556957008445	-0.2560942531187689	2.0542925282478586	-0.542547927105973	-0.26829562243971244	2.131294763983818	-0.6002194723975706	-0.2814139827390983	2.0525421115763343	-0.4473496399541428	-0.28097064424461843	1.9567680894938084	-0.40602053283539197	-0.29529172168431345	1.8725430881615333	-0.3826047743320394	-0.2316774691747494	2.057752017031155	-0.634047516465628	-0.22351656442513357	1.9756648480578831	-0.6528413899612322	-0.21392977236150826	1.895823002472929	-0.6691065252572146
